<?xml version="1.0" ?><!DOCTYPE svg  PUBLIC '-//W3C//DTD SVG 1.1//EN'  'http://www.w3.org/Graphics/SVG/1.1/DTD/svg11.dtd'><svg height="512px" style="enable-background:new 0 0 512 512;" version="1.1" viewBox="0 0 512 512" width="512px" xml:space="preserve" xmlns="http://www.w3.org/2000/svg" xmlns:xlink="http://www.w3.org/1999/xlink"><g id="_x32_96_x2C__shop_x2C__store_x2C__market_x2C__building_x2C__shopping"><g><path d="M362.93,206.192c1.11,5.771,3.949,10.954,7.963,14.967    c1.881,1.882,4.041,3.519,6.387,4.814l0,0l0.309,0.185l0,0l0.31,0.154l0,0l0.616,0.34h0.031l0.617,0.309l0,0l0.309,0.123h0.03    l0.31,0.154l0,0l0.646,0.277l0,0l0.649,0.248h0.03l0.309,0.123l0,0l1.02,0.371l0,0l0.339,0.092l0,0l0.339,0.123l0,0l0.679,0.186    l0,0l0.711,0.186l0,0l0.339,0.092l0,0l0.369,0.063l0,0l0.341,0.061l0,0l0.37,0.094l0,0l0.709,0.123l0,0l0.371,0.063l0,0    l0.34,0.061l0,0l0.37,0.031l0,0l0.37,0.062l0,0l0.371,0.031l0,0l0.369,0.03l0,0l0.371,0.031l0,0l0.338,0.031h0.032l0.339,0.03    h0.031h0.37l0,0h0.37l0,0h0.371l0,0l0.369,0.031l0,0l0.371-0.031l0,0h0.37l0,0h0.37h0.031h0.339h0.032l0.338-0.03h0.031    l0.371-0.031l0,0l0.338-0.031h0.032l0.339-0.03h0.031l0.34-0.031l0,0l0.371-0.062l0,0l0.37-0.031l0,0l0.339-0.061h0.031    l0.339-0.063l0,0l0.37-0.062l0,0l0.34-0.062h0.03l0.341-0.094l0,0l0.338-0.061h0.032l0.339-0.063l0,0l0.34-0.092l0.371-0.094    l0.338-0.092l0,0l0.339-0.093l0,0l0.341-0.093l0,0l0.338-0.123l0.341-0.092l0.339-0.124l0,0l0.34-0.124l0.339-0.123l0.341-0.123    l0.338-0.124l0.31-0.124l0,0l0.339-0.153l0,0l0.309-0.124l0.34-0.154l0.31-0.123l0.338-0.154l0.31-0.154l0.309-0.185l0.309-0.155    l0.309-0.154l0.308-0.185l0.309-0.154l0.309-0.186l0.31-0.185l0.277-0.186l0.309-0.186l0.277-0.185h0.031l0.277-0.185l0,0    l0.279-0.217l0.307-0.186l0.279-0.216l0.277-0.216l0.277-0.216l0.278-0.185l0.277-0.248l0.246-0.216l0.278-0.216l0.277-0.216    l0.248-0.247l0.277-0.217l0.247-0.246l0.246-0.248l0.247-0.215l0.247-0.247c4.413-4.413,7.437-10.276,8.271-16.788h-57.646    l0.031,0.309l0,0l0.061,0.309l0,0l0.094,0.617l0,0l0.061,0.277l0,0l0.032,0.31H362.93z M353.178,210.173    c0.648-1.851,1.111-3.765,1.358-5.802h-57.647c0.834,6.512,3.859,12.375,8.271,16.788c5.247,5.246,12.529,8.518,20.554,8.518    l0.37-0.031h0.37h0.402h0.37l0.37-0.03l0.37-0.031l0.37-0.031l0.339-0.03l0.37-0.031l0.37-0.062l0.37-0.031l0.371-0.061    l0.34-0.063l0.37-0.062l0.339-0.062l0.37-0.094l0.341-0.061l0.37-0.063l0.339-0.092l0.37-0.094l0.341-0.092l0.338-0.093    l0.341-0.093l0.339-0.123l0.34-0.092l0.339-0.124l0.341-0.124l0.338-0.123l0.339-0.123l0.31-0.124l0.34-0.124l0,0l0.339-0.123l0,0    l0.309-0.154l0.341-0.154l0.307-0.123l0.34-0.154l0.31-0.154l0,0l0.309-0.154l0.308-0.186l0,0l0.309-0.154l0.309-0.185l0,0    l0.309-0.154l0.309-0.186l0,0l0.277-0.185h0.032l0.277-0.186l0,0l0.309-0.186l0,0l0.277-0.185h0.031l0.277-0.185l0,0l0.277-0.217    l0,0l0.279-0.186h0.03l0.246-0.216h0.03l0.279-0.216l0,0l0.277-0.186l0,0l0.277-0.215l0,0l0.247-0.217h0.031l0.246-0.217l0,0    l0.279-0.246l0,0l0.245-0.216h0.032l0.247-0.247l0,0l0.245-0.217h0.032l0.245-0.246l0,0l0.248-0.216l0,0l0.247-0.247l0,0    l0.247-0.247l0,0c2.223-2.222,4.073-4.783,5.492-7.622l0.063-0.092l0.061-0.155l0.063-0.124l0.124-0.277l0.062-0.154l0.062-0.092    l0.062-0.155l0.063-0.122l0.062-0.155l0.062-0.124l0.062-0.154l0.032-0.092l0.091-0.186l0.031-0.092l0.062-0.186l0.432-1.111    L353.178,210.173z M280.657,221.066c0.493-0.524,0.986-1.049,1.45-1.604l0.031-0.03l0.154-0.186l0.03-0.031    c0.588-0.74,1.174-1.48,1.698-2.283l0.062-0.062l0.123-0.186l0.031-0.062l0.123-0.154l0.062-0.093l0.093-0.154l0.062-0.093    l0.093-0.154l0.062-0.093l0.093-0.154l0.339-0.616l0.093-0.154l0.062-0.093l0.093-0.154l0.062-0.093l0.402-0.803l0.062-0.123    l0.061-0.124l0.094-0.122l0.062-0.155l0.061-0.124l0.248-0.523l0.062-0.155l0.062-0.122l0.124-0.279l0.062-0.154l0.03-0.092    l0.063-0.186l0.062-0.092l0.062-0.186l0.031-0.094l0.092-0.185l0.031-0.093l0.062-0.185l0.031-0.093l0.062-0.186l0.03-0.092    l0.093-0.186l0.031-0.093l0.062-0.185l0.032-0.093l0.062-0.185l0.029-0.094l0.062-0.215l0.031-0.063l0.062-0.217l0.032-0.061    l0.061-0.217v-0.062l0.062-0.247l0.032-0.03l0.062-0.247v-0.063l0.061-0.215l0.032-0.062l0.062-0.247v-0.031l0.062-0.246    l0.031-0.063l0.029-0.246l0.032-0.031l0.062-0.278v-0.03l0.062-0.247v-0.031l0.031-0.277l0.029-0.03l0.032-0.279l0,0l0.062-0.277    v-0.031l0.062-0.277l0,0l0.031-0.309l0,0l0.062-0.309l0,0l0.031-0.309h-57.646l0.031,0.309l0,0l0.062,0.309l0,0l0.03,0.309l0,0    l0.063,0.277v0.031l0.03,0.277h0.031l0.03,0.279v0.03l0.062,0.277v0.031l0.063,0.247v0.03l0.061,0.278l0.03,0.031l0.032,0.246    l0.032,0.063l0.062,0.246v0.031l0.061,0.247l0.032,0.062l0.062,0.215v0.063l0.062,0.247l0.03,0.03l0.063,0.247v0.062l0.062,0.217    l0.03,0.061l0.063,0.217l0.03,0.063l0.062,0.215l0.032,0.094l0.062,0.185l0.031,0.093l0.062,0.185l0.03,0.093l0.063,0.186    l0.061,0.092l0.062,0.186l0.032,0.093l0.062,0.185l0.03,0.093l0.093,0.185l0.032,0.094l0.062,0.186l0.061,0.092l0.062,0.186    l0.032,0.092l0.062,0.154l0.123,0.279l0.062,0.122l0.063,0.155l0.246,0.523l0.061,0.124l0.063,0.155l0.061,0.122l0.062,0.124    l0.093,0.123l0.062,0.123l0.123,0.278l0.093,0.124l0.061,0.123l0.062,0.154l0.063,0.093l0.091,0.154l0.062,0.093l0.093,0.154    l0.125,0.277l0.062,0.092l0.093,0.154l0.062,0.093l0.091,0.154l0.063,0.093l0.091,0.154l0.063,0.093l0.091,0.154l0.062,0.093    l0.125,0.154l0.03,0.062l0.125,0.186l0.03,0.062l0.125,0.186l0.061,0.061l0.277,0.402l0.062,0.061l0.125,0.186l0.03,0.062    l0.154,0.187l0.155,0.215l0,0l0.031,0.063l0.155,0.185l0.03,0.03l0.154,0.186l0.032,0.031l0.154,0.217l0.03,0.03l0.154,0.185    l0.032,0.031l0.154,0.186l0.03,0.03l0.155,0.185l0.031,0.031l0.154,0.217h0.03l0.186,0.215l0,0l0.185,0.217h0.032l0.184,0.216l0,0    l0.186,0.216l0,0l0.216,0.186l0.216,0.216c1.297,1.296,2.746,2.5,4.291,3.55l0,0l0.309,0.185l0.586,0.37l0,0l0.895,0.556l0,0    l0.309,0.154l0,0l0.616,0.339l0,0l0.309,0.186l0,0l0.309,0.154l0,0l0.309,0.154h0.032l0.307,0.154l0.649,0.277l0,0l0.309,0.154    l0.339,0.123l0.338,0.124l0.309,0.124l0.34,0.123l0.339,0.123l0.34,0.124l0.339,0.124l0.34,0.092l0.338,0.123l0.339,0.093    l0.34,0.093l0.37,0.092l0.339,0.094l0.34,0.092l0.37,0.063l0.339,0.061l0.37,0.094l0.34,0.062l0.371,0.062l0.37,0.063l0.339,0.061    l0.37,0.031l0.37,0.062l0.37,0.031l0.341,0.03l0.401,0.031l0.339,0.031l0.37,0.03h0.401h0.371h0.37l0.37,0.031l0.37-0.031h0.37    h0.37h0.37l0.371-0.03l0.37-0.031l0.37-0.031l0.37-0.03l0.37-0.031l0.37-0.062l0.37-0.031l0.341-0.061l0.37-0.063l0.37-0.062    l0.339-0.062l0.37-0.094l0.341-0.061l0.37-0.063l0.339-0.092l0.34-0.094l0.37-0.092l0.339-0.093l0.341-0.093l0.339-0.123    l0.338-0.092l0.341-0.124l0.339-0.124l0.34-0.123l0.339-0.123l0.309-0.124l0.341-0.124l0.339-0.123l0.309-0.154l0.647-0.277    l0.309-0.154l0,0l0.341-0.154l0.307-0.154l0,0l0.31-0.186l0,0l0.617-0.339l0.309-0.154l0,0l0.31-0.186l0,0l0.277-0.185    l0.309-0.186l0.309-0.186l0,0l0.277-0.185l0.309-0.185l0,0l0.277-0.217l0,0l0.277-0.186l0,0l0.309-0.216l0,0l0.834-0.616    l0.277-0.217l0,0l0.247-0.217l0,0l1.05-0.926l0,0l1.018-0.956L280.657,221.066z M182.615,227.238    c3.55,1.574,7.5,2.438,11.636,2.438c1.881,0,3.703-0.186,5.492-0.524l0,0l1.081-0.217l0,0l0.338-0.092l0,0l0.709-0.186l0,0    l0.679-0.186l0,0l0.34-0.123l0,0l0.339-0.092l0.34-0.124l0,0l0.339-0.124l0,0l0.34-0.123l0.338-0.123l0.309-0.124l0,0l0.338-0.124    l0.341-0.123v-0.03l0.309-0.124l0.309-0.154l0.338-0.123l0.309-0.154l0.338-0.154l0.309-0.185l0.309-0.155l0.309-0.154    l0.309-0.185l0.309-0.154l0.309-0.186l0.277-0.185l0.309-0.186l0.309-0.186l0,0l0.277-0.185l0.309-0.185l0,0l0.277-0.217    l0.277-0.186l0,0l0.279-0.216l0.307-0.216l0,0l0.279-0.216l0.277-0.185l0.247-0.248l0.277-0.216l0.277-0.216l0.248-0.216    l0.277-0.247l0.248-0.217l0.277-0.246l0.248-0.248l0.246-0.215l0.247-0.247c1.481-1.513,2.839-3.147,3.982-4.938l0.061-0.093    l0.309-0.494l0.093-0.154l0.062-0.092l0.062-0.154l0.062-0.123l0.093-0.124l0.062-0.123l0.216-0.401l0.062-0.123l0.093-0.124    l0.062-0.124l0.062-0.154l0.063-0.123l0.062-0.123l0.093-0.124l0.062-0.122l0.062-0.155l0.062-0.124l0.062-0.154l0.061-0.092    l0.063-0.154l0.061-0.123l0.062-0.155l0.062-0.122l0.062-0.155l0.032-0.093l0.093-0.186l0.03-0.092l0.062-0.186l0.063-0.092    l0.062-0.186l0.03-0.094l0.063-0.185l0.061-0.093l0.062-0.185l0.03-0.093l0.063-0.186l0.03-0.092l0.093-0.186l0.032-0.093    l0.062-0.185l0.03-0.093l0.061-0.185l0.032-0.094l0.062-0.185l0.032-0.093l0.061-0.217v-0.061l0.093-0.217v-0.062l0.062-0.216    l0.031-0.062l0.062-0.247v-0.063l0.062-0.215l0.03-0.062l0.063-0.247v-0.031l0.062-0.246v-0.063l0.062-0.246l0.032-0.031    l0.061-0.248v-0.061l0.062-0.247v-0.031l0.032-0.277l0.03-0.03l0.032-0.279h0.03l0.031-0.277v-0.031l0.062-0.277l0,0l0.032-0.309    l0,0l0.062-0.309l0,0l0.03-0.309h-57.646l0.03,0.309l0.063,0.309l0.03,0.309l0,0l0.061,0.309l0.032,0.277l0.062,0.31l0.062,0.309    l0,0l0.062,0.277l0.063,0.31l0.091,0.309l0.063,0.277l0,0l0.062,0.277v0.031l0.091,0.277l0,0l0.063,0.277l0,0l0.091,0.309l0,0    l0.279,0.865l0,0l0.091,0.277l0,0l0.093,0.277l0,0l0.093,0.277l0,0l0.123,0.278l0,0l0.216,0.556l0,0l0.093,0.277l0,0l0.248,0.556    l0,0l0.248,0.524v0.031l0.123,0.246l0,0l0.525,1.05v0.03c1.358,2.593,3.116,4.969,5.215,7.067c1.729,1.697,3.641,3.24,5.771,4.475    l0,0l0.309,0.186l0,0l0.307,0.154v0.03l0.309,0.154l0,0l0.309,0.154l0,0l0.309,0.186l0,0l0.309,0.154l0,0l0.309,0.154h0.03    l0.309,0.154l0,0l0.309,0.123L182.615,227.238L182.615,227.238z M149.164,221.035l0.525-0.493v-0.03    c0.524-0.557,1.018-1.111,1.511-1.729l0.032-0.031l0.679-0.864l0.031-0.062l0.123-0.186l0.062-0.061l0.154-0.248l0.123-0.154    l0.031-0.061l0.309-0.433l0.03-0.062l0.125-0.154l0.03-0.093l0.125-0.154l0.03-0.093l0.125-0.154l0.062-0.093l0.154-0.247    l0.091-0.154l0.032-0.092l0.093-0.154l0.062-0.123l0.093-0.124l0.062-0.123l0.093-0.154l0.062-0.093l0.062-0.154l0.061-0.123    l0.093-0.124l0.062-0.124l0.061-0.154l0.062-0.123l0.063-0.123l0.062-0.124l0.093-0.122l0.062-0.155l0.061-0.124l0.062-0.154    l0.062-0.092l0.062-0.154l0.063-0.123l0.062-0.155l0.062-0.122l0.061-0.155l0.032-0.093l0.091-0.186l0.032-0.092l0.061-0.186    l0.062-0.092l0.063-0.186l0.03-0.094l0.093-0.185l0.032-0.093l0.062-0.185l0.03-0.093l0.061-0.186l0.032-0.092l0.093-0.186    l0.03-0.093l0.063-0.185l0.03-0.093l0.062-0.185l0.032-0.094l0.061-0.185l0.032-0.093l0.062-0.217v-0.061l0.062-0.217l0.031-0.062    l0.062-0.216l0.03-0.062l0.063-0.247v-0.063l0.061-0.215l0.03-0.062l0.062-0.247v-0.031l0.063-0.246v-0.063l0.061-0.246    l0.03-0.031l0.031-0.248l0.032-0.061l0.03-0.247l0.032-0.031l0.03-0.277l0.031-0.03l0.03-0.279l0,0l0.063-0.277v-0.031    l0.062-0.277l0,0l0.03-0.309l0,0l0.063-0.309l0,0l0.03-0.309H99.696l0.03,0.309l0,0l0.031,0.309l0,0l0.062,0.309l0,0l0.032,0.277    l0.03,0.031l0.032,0.277l0,0l0.061,0.279v0.03l0.062,0.277v0.031l0.062,0.247v0.03l0.062,0.278v0.031l0.063,0.246v0.063    l0.062,0.246l0.03,0.031l0.063,0.247v0.03l0.062,0.246l0.03,0.063l0.062,0.247v0.03l0.093,0.247v0.062l0.247,0.771l0.032,0.094    l0.062,0.185l0.03,0.093l0.279,0.74l0.03,0.093l0.155,0.462l0.061,0.094c1.451,3.703,3.673,7.005,6.451,9.782l0,0l0.248,0.247l0,0    l0.246,0.215v0.032l0.247,0.216l0,0l0.248,0.246l0,0l0.277,0.217l0,0l0.248,0.247l0,0l0.277,0.216l0,0l0.247,0.216v0.03    l0.277,0.186v0.031l0.277,0.217l0,0l0.277,0.185v0.03l0.279,0.186l0,0l0.277,0.216l0,0l0.277,0.216l0,0l0.309,0.186l0,0    l0.277,0.217l0,0l0.279,0.185l0,0l0.307,0.185l0,0l0.279,0.186l0,0l0.309,0.186l0,0l0.307,0.185l0.309,0.186l0,0l0.309,0.154l0,0    l0.309,0.185l0.309,0.154l0.309,0.155v0.03l0.309,0.154l0.309,0.154l0,0l0.338,0.154l0,0l0.309,0.123l0.309,0.154l0,0l0.339,0.124    v0.03l0.34,0.123l0.307,0.124l0,0l0.34,0.124l0.339,0.123l0.34,0.123l0,0l0.338,0.124l0,0l0.341,0.124l0.338,0.092l0.34,0.123    l0.339,0.093l0,0l0.34,0.093l0.339,0.092l0,0l0.37,0.094l0.339,0.092l0.34,0.063l0.37,0.061l0.339,0.094l0.37,0.062l0,0    l0.372,0.062l0.338,0.063l0.371,0.061l0.37,0.031l0.37,0.062l0.34,0.031l0.371,0.03l0.37,0.031l0.37,0.031l0.37,0.03h0.371h0.37    h0.4l0.371,0.031l0.37-0.031h0.37h0.372H130l0.371-0.03l0.37-0.031l0.37-0.031l0.37-0.03l0.371-0.031l0.37-0.062l0.37-0.031    l0.339-0.061l0.37-0.063l0.34-0.062l0.371-0.062l0.37-0.094l0.339-0.061l0.34-0.063l0.37-0.092l0.339-0.094l0.34-0.092l0.37-0.093    l0.339-0.093l0.34-0.123l0.338-0.092l0.341-0.124l0.338-0.124l0.339-0.123l0.309-0.123l0.34-0.124l0.339-0.124l0.309-0.153    l0.341-0.124l0,0l0.307-0.154h0.031l0.309-0.123l0.309-0.154l0,0l0.309-0.154l0.338-0.185l0,0l0.309-0.155l0.309-0.154l0,0    l0.309-0.185l0,0l0.307-0.154l0,0l0.279-0.186h0.03l0.279-0.185l0,0l0.307-0.186l0.309-0.186l0,0l0.279-0.185l0.307-0.185    l0.279-0.217l0,0l0.277-0.186l0,0l0.277-0.216l0,0l0.279-0.216h0.03l0.248-0.216h0.03l0.247-0.185h0.032l0.246-0.248l0,0    l0.556-0.432l0,0l0.525-0.463l0,0l0.248-0.217l0,0l0.524-0.494l0,0l0.493-0.462L149.164,221.035z M34.242,204.371    c0.863,6.574,3.795,12.437,8.177,16.85c4.197,4.229,9.721,7.16,15.924,8.117l1.758,0.215h0.309l2.376,0.124    c8.024,0,15.277-3.271,20.554-8.518l0.216-0.216c4.289-4.383,7.221-10.122,8.054-16.572H34.242z M40.69,93.739h422.072h0.091    h16.727V83.216h-11.728h-0.091H52.51h-0.093H40.69V93.739z M463.964,45.382H56.306v30.242h407.658V45.382z M123.025,286.551    H99.387v23.64h23.638V286.551z M396.072,310.931h-124.18l4.815,9.875h62.244c2.067,0,3.796,1.698,3.796,3.765    c0,2.099-1.729,3.797-3.796,3.797H280.41l5.926,12.189h62.152c2.066,0,3.764,1.696,3.764,3.795s-1.697,3.797-3.764,3.797h-58.45    l5.956,12.189h61.845c2.097,0,3.796,1.696,3.796,3.795c0,2.068-1.699,3.796-3.796,3.796h-58.172l3.457,7.098h75.791    L396.072,310.931z M303.648,392.369c-1.081,0-2.069,0.434-2.81,1.174c-0.709,0.709-1.141,1.696-1.141,2.809    c0,1.08,0.432,2.098,1.141,2.807c0.524,0.525,1.204,0.896,1.914,1.05h1.82c0.711-0.154,1.39-0.524,1.914-1.05    c0.71-0.709,1.142-1.727,1.142-2.807c0-1.112-0.432-2.1-1.142-2.809C305.747,392.803,304.759,392.369,303.648,392.369z     M364.967,407.8c-0.525,0.062-1.018,0.124-1.543,0.124c-0.524,0-1.049-0.063-1.574-0.124h-56.627    c-0.525,0.062-1.05,0.124-1.574,0.124s-1.02-0.063-1.544-0.124H57.169h-0.091H41.215v16.448h437.84V407.8h-15.86h-0.094H364.967z     M447.022,292.384c2.099,0,3.797,1.698,3.797,3.796c0,2.099-1.698,3.796-3.797,3.796h-40.179l-2.099,7.899v0.031L404.713,308    l-0.091,0.307l-19.165,71.473c-0.432,1.697-1.975,2.809-3.642,2.809H300.87h-0.093h-0.093l-28.235,0.03    c-2.069,0-3.796-1.728-3.796-3.796c0-2.098,1.727-3.796,3.796-3.796h22.25l-32.188-66.102c-0.309-0.524-0.463-1.142-0.463-1.79    c0-2.098,1.696-3.796,3.795-3.796H398.11l2.128-7.899c0.341-1.729,1.883-3.056,3.705-3.056H447.022z M158.02,348.95h-31.106    h-0.093h-0.123H95.621c-2.099,0-3.795-1.697-3.795-3.765v-31.107v-0.092v-0.125v-31.075c0-2.099,1.697-3.796,3.795-3.796h31.077    h0.123h0.093h31.106c2.067,0,3.795,1.697,3.795,3.796v31.075v0.125v0.092v31.107C161.815,347.253,160.087,348.95,158.02,348.95z     M355.245,388.173c2.069-2.099,4.97-3.395,8.179-3.395c3.178,0,6.078,1.296,8.178,3.395c2.066,2.067,3.363,4.969,3.363,8.179    c0,1.357-0.216,2.653-0.647,3.856h84.988V237.176c-0.711,0.062-1.42,0.062-2.131,0.062c-10.121,0-19.286-4.104-25.921-10.739    l-0.125-0.123l-0.122-0.124l-0.062-0.062l-0.062-0.094l-0.154-0.122l-0.093-0.093l-0.032-0.031l-0.123-0.154l-0.122-0.123l0,0    l-0.125-0.123l-0.123-0.154l-0.062-0.063l-0.062-0.062l-0.124-0.154l-0.091-0.093l-0.032-0.061l-0.123-0.124l-0.247-0.278    l-0.123-0.154l-0.063-0.062l-0.062-0.062l-0.123-0.154l-0.341-0.433l-0.029-0.03l-0.094-0.123l-0.122-0.124l-0.062-0.093    l-0.74-0.957l-0.063-0.092l-0.03-0.063l-0.124-0.154l-0.092-0.123v-0.031l-0.34-0.462l-0.093-0.155l-0.062-0.092l-0.03-0.063    l-0.125-0.154l-0.091-0.154l0,0l-0.093-0.153l-0.125-0.154l-0.029-0.063l-0.062-0.092l-0.187-0.31l-0.123-0.154l-0.093-0.185l0,0    l-0.093-0.154l-0.091-0.155l-0.032-0.061l-0.062-0.092L425.482,219l-0.093-0.186l-0.091-0.154l-0.094-0.154l-0.031-0.031    l-0.062-0.154l-0.093-0.154l-0.062-0.062l-0.03-0.093l-0.093-0.186l-0.062-0.123l-0.031-0.031l-0.093-0.154l-0.062-0.186    l-0.032-0.03l-0.062-0.124l-0.091-0.153l-0.031-0.093l-0.062-0.092l-0.031,0.092l-0.03,0.093l-0.093,0.153l-0.094,0.154l0,0    l-0.093,0.186l-0.091,0.154v0.031l-0.063,0.154l-0.091,0.154l-0.279,0.494l0,0l-0.091,0.154l-0.094,0.185l-0.031,0.03L423.168,219    l-0.093,0.154l-0.062,0.092l-0.03,0.061l-0.093,0.155l-0.124,0.185l0,0l-0.092,0.154l-0.093,0.154l-0.031,0.063l-0.062,0.092    l-0.185,0.277l-0.031,0.032l-0.094,0.154l-0.091,0.185l0,0l-0.125,0.123l-0.093,0.186l-0.029,0.031l-0.062,0.123l-0.125,0.154    l-0.062,0.094l-0.029,0.03l-0.341,0.462l-0.093,0.154l-0.062,0.063l-0.062,0.092l-0.093,0.155l-0.093,0.124l-0.03,0.03    l-0.123,0.154l-0.093,0.123l-0.031,0.03l-0.093,0.124l-0.123,0.154l-0.062,0.062l-0.031,0.093l-0.123,0.124l-0.094,0.153h-0.029    l-0.125,0.154l-0.122,0.155v0.03l-0.123,0.093l-0.093,0.154l-0.094,0.062l-0.029,0.093l-0.125,0.123l-0.123,0.123v0.031    l-0.124,0.124l-0.123,0.154l-0.029,0.03l-0.094,0.093l-0.124,0.154l-0.092,0.062l-0.031,0.063l-0.123,0.154l-0.124,0.123l0,0    l-0.123,0.123l-0.154,0.154l-0.03,0.031l-0.093,0.093l-0.125,0.154l-0.091,0.062l-0.031,0.062l-0.155,0.124l-0.122,0.123    c-6.635,6.635-15.8,10.739-25.924,10.739h-0.463h-0.461h-0.495l-0.464-0.03l-0.461-0.031l-0.463-0.031l-0.464-0.031l-0.463-0.061    l-0.464-0.031l-0.461-0.063l-0.463-0.061l0,0l-0.464-0.063l0,0l-0.432-0.063v-0.03l-0.463-0.062l-0.464-0.093l0,0l-0.432-0.093    l0,0l-0.463-0.092l0,0l-0.432-0.093l0,0l-0.432-0.093l-0.463-0.123l-0.432-0.123l0,0l-0.432-0.124l0,0l-0.434-0.124l-0.432-0.123    l0,0l-0.432-0.123l0,0l-0.432-0.154l0,0l-0.432-0.154l-0.402-0.154l0,0l-0.432-0.154l-0.402-0.154l0,0l-0.432-0.154l0,0    l-0.401-0.186l0,0l-0.432-0.186l-0.401-0.154v-0.03l-0.4-0.185l-0.402-0.186l0,0l-0.4-0.186l0,0l-0.401-0.217l-0.37-0.185l0,0    l-0.402-0.216l0,0l-0.399-0.216l0,0l-0.37-0.216l-0.402-0.216l0,0l-0.37-0.217v-0.03l-0.37-0.217l0,0l-0.37-0.246l0,0l-0.37-0.217    v-0.031l-0.371-0.215v-0.031l-0.369-0.247l0,0l-0.371-0.247l0,0l-0.34-0.246l0,0l-0.371-0.248v-0.03l-0.338-0.247l0,0    l-0.341-0.277l0,0l-0.339-0.277l0,0l-0.34-0.278l0,0l-1.018-0.864l0,0l-0.339-0.277l0,0l-0.618-0.617l-0.34-0.309l0,0    l-0.307-0.309l0,0l-0.125-0.123l-0.123-0.124l-0.062-0.062l-0.093-0.062l-0.123-0.154l-0.093-0.093l-0.032-0.031l-0.123-0.154    l-0.122-0.123l0,0l-0.124-0.123l-0.123-0.154l-0.063-0.063l-0.063-0.062l-0.152-0.154l-0.094-0.093v-0.061l-0.154-0.124    l-0.093-0.155h-0.03l-0.093-0.123l-0.124-0.154l-0.123-0.123l-0.123-0.154l-0.247-0.278l-0.123-0.154v-0.03l-0.216-0.247    l-0.063-0.093l-0.063-0.062c-0.37-0.494-0.74-0.987-1.11-1.512l-0.093-0.154l-0.062-0.063l-0.709-1.08l-0.062-0.092    c-0.402-0.648-0.804-1.265-1.143-1.944l-0.093-0.154l-0.062-0.092l-0.031-0.063l-0.092-0.186l-0.494-0.956l-0.03-0.03    l-0.093,0.152l-0.031,0.094l-0.03,0.092l-0.093,0.154l-0.094,0.154v0.031l-0.092,0.154l-0.092,0.154v0.062l-0.094,0.124    l-0.061,0.154l-0.062,0.093l-0.032,0.062l-0.093,0.186l-0.493,0.801l-0.031,0.094l-0.062,0.062l-0.093,0.185l-0.094,0.124v0.03    l-0.091,0.154l-0.864,1.297l-0.063,0.123c-1.265,1.82-2.685,3.519-4.227,5.093l-0.062,0.062l0,0l-0.31,0.309l0,0l-0.309,0.308l0,0    l-0.34,0.278l0,0l-0.307,0.309l0,0l-0.341,0.277l0,0l-0.31,0.309h-0.029l-0.309,0.277l0,0l-0.341,0.278l0,0l-0.339,0.278l0,0    l-0.34,0.277h-0.03l-0.341,0.277l0,0l-0.338,0.277l0,0l-0.371,0.248l0,0l-0.34,0.246l0,0l-0.37,0.247l0,0l-0.37,0.278l0,0    l-0.371,0.246l0,0l-0.369,0.217l-0.371,0.246l0,0l-0.37,0.247l0,0l-0.37,0.217l0,0l-0.37,0.216h-0.03l-0.369,0.216l0,0    l-0.402,0.216l0,0l-0.371,0.216l0,0l-0.401,0.185l0,0l-0.399,0.217l-0.402,0.186l-0.402,0.186l-0.399,0.215l0,0l-0.401,0.154    l-0.432,0.186l-0.402,0.186l-0.4,0.154l-0.434,0.154l-0.4,0.154l-0.432,0.154l-0.433,0.154l-0.432,0.154l-0.432,0.123    l-0.432,0.123l0,0l-0.433,0.124l-0.433,0.124l-0.432,0.123l0,0l-0.432,0.123l-0.464,0.093l-0.432,0.093l-0.432,0.092h-0.031    l-0.432,0.093l-0.463,0.093l-0.432,0.062l-0.464,0.093l-0.463,0.063l0,0l-0.462,0.061l-0.434,0.063l-0.461,0.031l-0.495,0.061    l-0.432,0.031l-0.493,0.031l0,0l-0.463,0.031l-0.463,0.03h-0.464h-0.493h-0.463c-10.121,0-19.289-4.104-25.923-10.739    l-0.123-0.123l-0.123-0.124l-0.063-0.062l-0.091-0.062l-0.125-0.154l-0.091-0.093l-0.031-0.031l-0.123-0.154l-0.125-0.123h-0.029    l-0.094-0.123l-0.122-0.154l-0.063-0.063l-0.062-0.062l-0.154-0.154l-0.092-0.093l-0.031-0.03l-0.093-0.154L298,224.615v-0.031    l-0.092-0.123l-0.124-0.123l-0.062-0.093l-0.062-0.062l-0.123-0.154l-0.093-0.093l-0.031-0.03l-0.123-0.155l-0.125-0.154l0,0    l-0.091-0.153l-0.187-0.217l-0.062-0.062l-0.122-0.154l-0.094-0.124v-0.03l-0.122-0.123l-0.218-0.309l-0.123-0.155l-0.062-0.092    l-0.031-0.063l-0.123-0.154l-0.309-0.462l-0.03-0.03l-0.093-0.124l-0.093-0.124l-0.062-0.123l-0.062-0.063l-0.093-0.154    l-0.216-0.308l-0.093-0.154l-0.03-0.032l-0.063-0.122l-0.123-0.155l-0.061-0.092l-0.032-0.063l-0.277-0.493l-0.093-0.155    l-0.062-0.061l-0.031-0.092l-0.493-0.834l-0.093-0.154l-0.03-0.062l-0.031-0.093l-0.277-0.494l-0.093-0.186l0,0L293,217.178    l-0.061-0.186l-0.062-0.061l-0.032-0.092l-0.029,0.061l-0.062,0.092l-0.063,0.154l-0.091,0.155v0.03l-0.093,0.154l-0.094,0.154    v0.063l-0.062,0.092l-0.093,0.186l-0.062,0.124l-0.031,0.03l-0.091,0.154l-0.094,0.154v0.031l-0.093,0.123l-0.093,0.186    l-0.03,0.092l-0.031,0.063l-0.091,0.154l-0.094,0.154l-0.093,0.154l-0.123,0.154l-0.031,0.062l-0.062,0.093l-0.093,0.154    l-0.062,0.123l-0.031,0.031l-0.092,0.154l-0.093,0.154l-0.031,0.03l-0.062,0.124l-0.123,0.154l-0.062,0.092l-0.031,0.063    l-0.094,0.154l-0.093,0.154h-0.029l-0.094,0.123l-0.093,0.154l-0.062,0.094l-0.029,0.061l-0.125,0.154l-0.093,0.123v0.031    l-0.123,0.154l-0.093,0.123l-0.03,0.063l-0.062,0.092l-0.216,0.247l-0.031,0.063l-0.093,0.122l-0.339,0.434l-0.062,0.092    l-0.031,0.063l-0.123,0.123l-0.125,0.154l0,0l-0.091,0.154l-0.125,0.123l-0.061,0.063l-0.062,0.092l-0.125,0.123l-0.091,0.124    l-0.032,0.03l-0.093,0.124l-0.245,0.278l-0.125,0.123l-0.062,0.093l-0.062,0.062l-0.123,0.123l-0.124,0.154l0,0l-0.123,0.123    l-0.123,0.124l-0.031,0.062l-0.093,0.093l-0.216,0.247h-0.03l-0.124,0.123l-0.123,0.154l-0.032,0.031l-0.091,0.093l0,0    l-0.218,0.247c-1.852,1.852-3.918,3.518-6.171,4.938l0,0l-0.371,0.246l0,0l-1.142,0.68l0,0l-0.37,0.216l0,0l-0.4,0.216l0,0    l-0.37,0.216l0,0l-0.402,0.185l0,0l-0.401,0.217l0,0l-0.4,0.186l0,0l-0.401,0.186l0,0l-0.4,0.185v0.03l-0.402,0.154l-0.432,0.186    l0,0l-0.401,0.186l0,0l-0.402,0.154l-0.432,0.154l-0.432,0.154l-0.401,0.154l-0.432,0.154l0,0l-0.432,0.154l-0.432,0.123    l-0.432,0.123l-0.434,0.124l-0.432,0.124l-0.432,0.123l-0.432,0.123l-0.464,0.093l-0.432,0.093l0,0l-0.463,0.092l-0.432,0.093    l-0.463,0.093l-0.432,0.062l-0.464,0.093l-0.463,0.063l-0.463,0.061l-0.462,0.063l-0.463,0.031l-0.464,0.061l-0.463,0.031    l-0.464,0.031l-0.461,0.031l-0.463,0.03h-0.464h-0.493h-0.463c-10.123,0-19.288-4.104-25.923-10.708    c-1.142-1.174-2.222-2.377-3.178-3.673l-0.125-0.155l-0.03-0.03l-0.093-0.092l-0.093-0.154l-0.091-0.124l-0.125-0.186    l-0.123-0.154l0,0l-0.125-0.154l-0.091-0.153l-0.032-0.062l-0.061-0.093l-0.123-0.154l-0.063-0.093l-0.03-0.063l-0.123-0.154    l-0.093-0.154l0,0l-0.093-0.154l-0.123-0.153l-0.031-0.062l-0.062-0.093l-0.093-0.154l-0.093-0.124l-0.03-0.031l-0.093-0.154    l-0.093-0.185l0,0l-0.091-0.154l-0.093-0.154l-0.062-0.062l-0.032-0.094l-0.123-0.152l-0.063-0.124l-0.03-0.062l-0.093-0.154    l-0.093-0.154v-0.031l-0.091-0.123l-0.093-0.186l-0.032-0.062l-0.062-0.093l-0.061-0.154l-0.093-0.124v-0.062l-0.093-0.154    l-0.091-0.186l0,0l-0.093-0.154l-0.093-0.154l-0.03-0.092l-0.032-0.094l-0.093-0.152l-0.093,0.152l-0.03,0.094l-0.062,0.092    l-0.061,0.154l-0.463,0.834l-0.032,0.093l-0.03,0.062l-0.093,0.186l-0.093,0.123l-0.032,0.031l-0.061,0.154l-0.679,1.11    l-0.123,0.185v0.031l-0.186,0.278l-0.061,0.093l-0.03,0.062l-0.125,0.153l-0.091,0.154l0,0l-0.093,0.154l-0.34,0.464l-0.062,0.093    l-0.03,0.062l-0.125,0.153l-0.091,0.124v0.03l-0.125,0.154l-0.093,0.154l-0.03,0.031l-0.093,0.124l-0.123,0.124l-0.062,0.092    l-0.031,0.061l-0.123,0.155l-0.093,0.124l-0.032,0.03l-0.091,0.154l-0.125,0.124l-0.03,0.061l-0.093,0.094l-0.186,0.216    l-0.03,0.062l-0.247,0.277v0.031l-0.248,0.277l-0.03,0.031l-0.216,0.246l-0.063,0.094l-0.061,0.062l-0.123,0.124l-0.093,0.123    l-0.03,0.03l-0.125,0.124l-0.37,0.432l-0.093,0.062l-0.03,0.062l-0.123,0.154l-0.125,0.094v0.03l-0.154,0.122l-0.123,0.155    l-0.032,0.031l-0.03,0.03l-0.186,0.186c-1.542,1.574-3.239,2.993-5.061,4.228L214,231.467l0,0l-0.37,0.246l0,0l-0.37,0.217l0,0    l-0.371,0.247l0,0l-0.402,0.216l0,0l-0.37,0.216l-0.4,0.216l-0.371,0.216l0,0l-0.402,0.185l0,0l-0.402,0.217l0,0l-0.4,0.186    l-0.804,0.37l-0.4,0.185l0,0l-0.432,0.186l-0.402,0.186l-0.402,0.154l0,0l-0.432,0.154l0,0l-0.432,0.154l-0.402,0.154l0,0    l-0.432,0.154l-0.432,0.154l0,0l-0.432,0.123l-0.434,0.123l-0.432,0.124l-0.432,0.124l-0.432,0.123l-0.432,0.123l-0.463,0.093    l-0.432,0.093l-0.463,0.092l-0.432,0.093l-0.463,0.093l-0.463,0.062l-0.432,0.093l-0.463,0.063l-0.463,0.061l-0.463,0.063    l-0.461,0.031l-0.463,0.061l-0.463,0.031l-0.463,0.031l-0.463,0.031l-0.461,0.03h-0.495h-0.463h-0.461h-0.495h-0.463h-0.462v-0.03    h-0.463l0,0l-0.463-0.031l0,0l-0.493-0.031l0,0c-4.661-0.371-9.042-1.573-13.054-3.518h-0.031l-1.542-0.803h-0.032l-1.142-0.647    v-0.032l-1.141-0.678l0,0l-0.711-0.494h-0.03l-0.34-0.247l0,0l-0.741-0.493l0,0l-0.338-0.278l0,0l-0.34-0.247v-0.03l-0.371-0.247    l0,0l-0.338-0.277l0,0l-0.341-0.278l0,0l-0.338-0.278l0,0l-0.34-0.277l0,0l-0.309-0.309l-0.338-0.277l-0.309-0.309l-0.338-0.309    l0,0l-0.309-0.309l0,0l-0.309-0.309l0,0l-0.123-0.123l-0.154-0.124l-0.032-0.062l-0.216-0.216l-0.093-0.093l-0.03-0.031    l-0.125-0.154l-0.154-0.123l0,0l-0.123-0.123l-0.123-0.154l-0.032-0.063l-0.093-0.062l-0.123-0.154l-0.833-0.987l-0.123-0.123l0,0    l-0.125-0.155l-0.678-0.864l-0.031-0.03c-1.234-1.604-2.346-3.333-3.303-5.153v-0.031l-0.432-0.832l-0.186,0.338l-0.062,0.124    v0.03l-0.091,0.154l-0.093,0.154l-0.032,0.063l-0.061,0.123l-0.062,0.154l-0.062,0.094l-0.032,0.061l-0.093,0.154l-0.091,0.154    v0.031l-0.093,0.123l-0.093,0.186l-0.032,0.062l-0.061,0.093l-0.091,0.154l-0.093,0.154l0,0l-0.093,0.154l-0.093,0.154    l-0.03,0.062l-0.061,0.093l-0.093,0.154l-0.062,0.123l-0.031,0.031l-0.093,0.154l-0.093,0.154l-0.03,0.03l-0.093,0.124    l-0.093,0.154l-0.062,0.092l-0.03,0.063l-0.093,0.154l-0.125,0.154l0,0l-0.091,0.123l-0.093,0.154l-0.062,0.094l-0.062,0.061    l-0.093,0.154l-0.093,0.123l-0.03,0.031l-0.093,0.154l-0.093,0.123l-0.216,0.31l-0.093,0.092l-0.03,0.032l-0.093,0.152    l-0.125,0.155v0.03l-0.123,0.124l-0.093,0.124l-0.062,0.092l-0.062,0.063l-0.093,0.123l-0.123,0.154l0,0l-0.123,0.154    l-0.093,0.123l-0.061,0.063l-0.063,0.092l-0.123,0.123l-0.093,0.124l-0.03,0.03l-0.125,0.124l-0.091,0.155l-0.032,0.029    l-0.093,0.094l-0.123,0.123l-0.093,0.123l-0.03,0.031l-0.125,0.123l-0.123,0.123v0.031l-0.123,0.123l-0.125,0.124l-0.061,0.093    l-0.062,0.031l-0.123,0.154l-0.125,0.123l0,0l-0.123,0.123l-0.125,0.124l-0.061,0.062l-0.062,0.093h-0.03l-0.186,0.216    c-1.574,1.574-3.241,2.993-5.061,4.228l-1.111,0.741l0,0l-0.371,0.246l0,0l-0.37,0.217l0,0l-0.402,0.247l0,0l-0.37,0.216l0,0    l-0.37,0.216l-0.402,0.216l-0.4,0.216l0,0l-0.37,0.185l0,0l-0.402,0.217l0,0l-0.402,0.186l-0.802,0.37l-0.432,0.185l0,0    l-0.402,0.186l-0.4,0.186l-0.432,0.154l0,0l-0.402,0.154l0,0l-0.432,0.154l-0.402,0.154l0,0l-0.432,0.154l-0.432,0.154l0,0    l-0.433,0.123l-0.432,0.123l-0.432,0.124l-0.432,0.124l-0.432,0.123l-0.463,0.123l-0.432,0.093l-0.433,0.093l-0.461,0.092    l-0.434,0.093L135,236.682l-0.463,0.062l-0.432,0.093l-0.463,0.063l-0.463,0.061l-0.463,0.063l-0.463,0.031l-0.461,0.061    l-0.463,0.031l-0.463,0.031l-0.463,0.031l-0.463,0.03h-0.493h-0.463h-0.463h-0.493h-0.463h-0.463l-0.461-0.03l-0.463-0.031h-0.031    l-0.463-0.031l-0.461-0.031l-0.463-0.061l-0.463-0.031l-0.463-0.063l-0.432-0.061l0,0l-0.463-0.063l0,0l-0.463-0.093l-0.461-0.062    l-0.434-0.093l0,0l-0.461-0.093l0,0l-0.434-0.092l0,0l-0.461-0.093l0,0l-0.433-0.093l-0.432-0.123l0,0l-0.432-0.123l0,0    l-0.463-0.124l-0.4-0.124h-0.031l-0.432-0.123l0,0l-0.402-0.123l-0.432-0.154l0,0l-0.432-0.154l-0.432-0.154l0,0l-0.402-0.154    l-0.432-0.154l0,0l-0.402-0.154l0,0l-0.432-0.186l0,0l-0.402-0.186l-0.4-0.154v-0.03l-0.402-0.185l-0.402-0.186l0,0l-0.4-0.186    l0,0l-0.402-0.217l-0.402-0.185l0,0l-0.4-0.216l0,0l-0.371-0.216l0,0l-0.402-0.216l-0.37-0.216l0,0l-0.37-0.217v-0.03l-0.4-0.217    l0,0l-0.372-0.246l0,0l-0.371-0.217v-0.031l-0.37-0.215v-0.031l-0.339-0.247l0,0l-0.37-0.247l0,0l-0.37-0.246l0,0l-0.34-0.248    v-0.03l-0.339-0.247l-0.37-0.277l0,0l-0.34-0.277l0,0l-0.339-0.278l0,0l-0.339-0.278l0,0l-0.34-0.277l0,0l-0.338-0.309l0,0    l-0.309-0.277l0,0l-0.34-0.309l0,0l-0.309-0.278v-0.03l-0.307-0.277v-0.031l-0.309-0.277v-0.031l-0.062-0.03    c-2.778-2.809-5.124-6.049-6.882-9.628l-0.155,0.246l-0.031,0.092l-0.154,0.309l0,0l-0.339,0.648l-0.093,0.124v0.03l-0.093,0.154    l-0.277,0.494L94.449,219l-0.586,1.018l-0.093,0.123v0.031l-0.123,0.154l-0.093,0.154v0.031l-0.093,0.123l-0.093,0.154    l-0.062,0.092l-0.03,0.063l-0.125,0.154l-0.185,0.277l-0.125,0.154l-0.03,0.063l-0.062,0.092l-0.125,0.154l-0.062,0.093    l-0.03,0.03l-0.093,0.154l-0.125,0.154l-0.03,0.031l-0.062,0.124l-0.125,0.124l-0.062,0.092l-0.03,0.061l-0.125,0.155    l-0.123,0.124v0.03l-0.093,0.124l-0.123,0.154l-0.032,0.061l-0.093,0.063l-0.091,0.154l-0.093,0.093l-0.031,0.03l-0.123,0.154    l-0.093,0.154h-0.03l-0.093,0.123l-0.123,0.154l-0.063,0.063l-0.062,0.062l-0.123,0.124l-0.093,0.154l-0.123,0.123l-0.125,0.154    l-0.062,0.031l-0.062,0.092l-0.123,0.123l-0.093,0.124l-0.154,0.154l-0.123,0.124l-0.031,0.03l-0.093,0.124l-0.123,0.123    l-0.062,0.063l-0.062,0.061l-0.125,0.124l-0.123,0.154l-0.216,0.216c-6.635,6.635-15.8,10.739-25.923,10.739    c-0.618,0-1.204,0-1.82-0.03v163.001h231.789c-0.434-1.203-0.649-2.499-0.649-3.856c0-3.21,1.297-6.111,3.364-8.179    c2.099-2.099,4.999-3.395,8.179-3.395c3.209,0,6.11,1.296,8.178,3.395c2.098,2.067,3.395,4.969,3.395,8.179    c0,1.357-0.247,2.653-0.648,3.856h37.927c-0.432-1.203-0.647-2.499-0.647-3.856c0-3.056,1.203-5.864,3.148-7.932L355.245,388.173z     M363.424,392.369c-1.11,0-2.099,0.434-2.839,1.174l-0.154,0.154c-0.618,0.679-1.02,1.604-1.02,2.654    c0,1.11,0.463,2.098,1.174,2.807c0.524,0.525,1.172,0.896,1.913,1.05h1.82c0.741-0.154,1.389-0.524,1.913-1.05    c0.711-0.709,1.143-1.727,1.143-2.807c0-1.112-0.432-2.1-1.143-2.809C365.491,392.803,364.504,392.369,363.424,392.369z     M154.225,286.551h-23.608v23.64h23.608V286.551z M99.387,341.39h23.638v-23.64H99.387V341.39z M130.616,341.39h23.608v-23.64    h-23.608V341.39z M91.857,101.33H60.442l-25.305,95.48h56.72V101.33z M157.588,101.33h-58.14v95.48h58.14V101.33z M223.319,101.33    h-58.14v95.48h58.14V101.33z M289.051,101.33h-58.14v95.48h58.14V101.33z M354.781,101.33h-58.138v95.48h58.138V101.33z     M420.515,101.33h-58.14v95.48h58.14V101.33z M428.105,196.811h57.03l-25.276-95.48h-31.754V196.811z M29.797,442.178    c-2.099,0-3.795-1.697-3.795-3.796s1.697-3.796,3.795-3.796h128.871c2.099,0,3.797,1.697,3.797,3.796s-1.699,3.796-3.797,3.796    H29.797z M184.343,442.178c-2.099,0-3.796-1.697-3.796-3.796s1.697-3.796,3.796-3.796h17.282c2.067,0,3.795,1.697,3.795,3.796    s-1.728,3.796-3.795,3.796H184.343z M434.68,459.027c2.099,0,3.795,1.696,3.795,3.795c0,2.1-1.696,3.796-3.795,3.796H271.708    c-2.068,0-3.766-1.696-3.766-3.796c0-2.099,1.697-3.795,3.766-3.795H434.68z M239.244,459.027c2.099,0,3.795,1.696,3.795,3.795    c0,2.1-1.697,3.796-3.795,3.796h-52.925c-2.099,0-3.795-1.696-3.795-3.796c0-2.099,1.697-3.795,3.795-3.795H239.244z     M462.052,229.275c6.08-1.05,11.511-3.95,15.677-8.116l0.216-0.216c4.32-4.383,7.221-10.122,8.055-16.572h-57.646l0.029,0.309l0,0    l0.062,0.309l0,0l0.063,0.309l0,0l0.029,0.309l0,0l0.062,0.277l0,0l0.062,0.31l0,0l0.063,0.309l0,0l0.062,0.277l0.062,0.31    l0.062,0.309l0.061,0.277l0,0l0.094,0.309l0.062,0.277l0,0l0.093,0.277l0.093,0.309l0.062,0.277l0.093,0.279l0.092,0.309    l0.093,0.277l0,0l0.125,0.277l0,0l0.091,0.277l0,0l0.093,0.278l0.123,0.277l0.093,0.278l0.125,0.277l0.091,0.277l0.125,0.278    l0.123,0.277l0.122,0.278l0.125,0.246l0.123,0.278l0.154,0.277l0,0l0.123,0.247l0,0l0.124,0.277l0.154,0.248l0.123,0.277    l0.154,0.247l0.154,0.247l0.154,0.277l0.155,0.246l0.154,0.247l0.154,0.247l0,0l0.152,0.247l0.154,0.247l0.154,0.247l0.155,0.247    l0.186,0.246l0.185,0.217l0.154,0.246l0.186,0.248l0.154,0.215l0.185,0.247l0.186,0.216l0.185,0.248l0.187,0.215l0.184,0.217    l0.187,0.215l0.216,0.248l0.184,0.215l0.218,0.217l0.185,0.216l0.216,0.216l0.186,0.186l0.216,0.216    c5.245,5.246,12.529,8.518,20.552,8.518c2.038-0.093,2.901-0.154,4.661-0.401h0.123l0,0H462.052z" fill="red" style="fill-rule:evenodd;clip-rule:evenodd;"/></g></g><g id="Layer_1"/></svg>